<svg xmlns="http://www.w3.org/2000/svg" viewBox="0 0 32 32" width="32" height="32">
  <defs>
    <filter id="distress">
      <feTurbulence type="fractalNoise" baseFrequency="0.8" numOctaves="4" result="noise"/>
      <feDisplacementMap in="SourceGraphic" in2="noise" scale="2" xChannelSelector="R" yChannelSelector="G"/>
    </filter>
    <filter id="shadow">
      <feDropShadow dx="1" dy="1" stdDeviation="1" flood-color="#8C5CF7" flood-opacity="0.8"/>
    </filter>
  </defs>
  
  <!-- Background circle -->
  <circle cx="16" cy="16" r="14" fill="#0D0D0F"/>
  
  <!-- Main "0" shape with distressed effect -->
  <path d="M16 6 C 22 6, 26 10, 26 16 C 26 22, 22 26, 16 26 C 10 26, 6 22, 6 16 C 6 10, 10 6, 16 6 Z M 16 10 C 12 10, 10 12, 10 16 C 10 20, 12 22, 16 22 C 20 22, 22 20, 22 16 C 22 12, 20 10, 16 10 Z" 
        fill="white" 
        filter="url(#distress) url(#shadow)"/>
  
  <!-- Purple outline -->
  <path d="M16 6 C 22 6, 26 10, 26 16 C 26 22, 22 26, 16 26 C 10 26, 6 22, 6 16 C 6 10, 10 6, 16 6 Z M 16 10 C 12 10, 10 12, 10 16 C 10 20, 12 22, 16 22 C 20 22, 22 20, 22 16 C 22 12, 20 10, 16 10 Z" 
        fill="none" 
        stroke="#8C5CF7" 
        stroke-width="1.5" 
        stroke-linejoin="round"/>
</svg>
